<svg xmlns="http://www.w3.org/2000/svg" width="263.858" height="67.674" viewBox="0 0 263.858 67.674">
    <defs>
        <style>
            .cls-1{fill:#005596}
        </style>
    </defs>
    <g id="LWV_Logo_Color_Full_RGB" transform="translate(-98.146 -344.28)">
        <path id="Path_248" d="M342.624 401.211v-9.369l-4.375 9.369h-1.446l-4.374-9.345v9.345h-2v-13.619h2.052l5.138 10.778 5.138-10.778h1.962v13.619z" class="cls-1" transform="translate(-89.518 -16.692)"/>
        <path id="Path_249" d="M310.363 401.351a7.188 7.188 0 1 1 7.371-7.185 7.052 7.052 0 0 1-7.371 7.185zm0-12.536a5.032 5.032 0 0 0-5.163 5.351 5.156 5.156 0 1 0 10.3 0 5.022 5.022 0 0 0-5.137-5.351z" class="cls-1" transform="translate(-78.935 -16.456)"/>
        <path id="Path_250" d="M273.853 369.591v-13.619h2.163v11.785h6.4v1.834z" class="cls-1" transform="translate(-67.715 -4.506)"/>
        <path id="Path_251" d="M290.269 369.591v-13.619h8.565v1.834h-6.4v3.694h5.266v1.833h-5.272v4.423h6.4v1.834z" class="cls-1" transform="translate(-74.041 -4.506)"/>
        <path id="Path_252" d="M317.791 369.591l-1.629-3.714h-5.742l-1.629 3.714h-2.151l5.993-13.619h1.406l5.993 13.619zm-2.393-5.5l-2.108-4.843-2.107 4.843z" class="cls-1" transform="translate(-80.351 -4.506)"/>
        <path id="Path_253" d="M335.259 369.787a7.052 7.052 0 0 1-7.394-7.185c0-4.112 3.109-7.1 7.394-7.1a8.582 8.582 0 0 1 4.811 1.427l.071.053v2.318a7.537 7.537 0 0 0-4.882-1.959 4.936 4.936 0 0 0-5.159 5.259 5.032 5.032 0 0 0 5.163 5.35 7.16 7.16 0 0 0 3.285-.7v-2.726h-2.783v-1.834h4.946v5.645l-.109.046c-.1.041-.22.1-.363.16a11.922 11.922 0 0 1-4.98 1.246z" class="cls-1" transform="translate(-88.53 -4.326)"/>
        <path id="Path_254" d="M358.645 369.814c-3.907 0-6.058-2.371-6.058-6.677v-7.318h2.207v7.34c0 3.11 1.347 4.754 3.9 4.754s3.9-1.644 3.9-4.754v-7.34h2.106v7.318c0 4.306-2.148 6.677-6.055 6.677z" class="cls-1" transform="translate(-98.057 -4.447)"/>
        <path id="Path_255" d="M376.341 369.591v-13.619h8.565v1.834h-6.4v3.694h5.272v1.833H378.5v4.423h6.4v1.834z" class="cls-1" transform="translate(-107.212 -4.506)"/>
        <path id="Path_256" d="M407.919 371.623a5.679 5.679 0 1 1 5.823-5.677 5.571 5.571 0 0 1-5.823 5.677zm0-9.838a3.912 3.912 0 0 0-4.013 4.162 4.008 4.008 0 1 0 8.01 0 3.9 3.9 0 0 0-3.997-4.162z" class="cls-1" transform="translate(-117.131 -6.162)"/>
        <path id="Path_257" d="M423.627 371.513v-10.764h6.8v1.515H425.4v2.823h4.136v1.513H425.4v4.911z" class="cls-1" transform="translate(-125.435 -6.347)"/>
        <path id="Path_258" d="M284.417 401.211l-3.315-9.384-3.313 9.384h-1.381l-4.808-13.619h2.231l3.331 10.034 3.293-10.034h1.387s3.277 9.986 3.289 10.026c.012-.043 3.333-10.026 3.333-10.026h2.141l-4.805 13.619z" class="cls-1" transform="translate(-66.846 -16.692)"/>
        <path id="Path_259" d="M358.182 401.211v-13.619h8.566v1.834h-6.4v3.693h5.272v1.834h-5.272v4.423h6.4v1.834z" class="cls-1" transform="translate(-100.214 -16.692)"/>
        <path id="Path_260" d="M385.745 401.211l-7.817-9.565v9.565h-2v-13.619h1.3l7.818 9.566v-9.566h2v13.619z" class="cls-1" transform="translate(-107.051 -16.692)"/>
        <path id="Path_261" d="M408.671 401.211l-5.992-13.619h2.24l4.5 10.3 4.5-10.3h2.15l-5.992 13.619z" class="cls-1" transform="translate(-117.362 -16.692)"/>
        <path id="Path_262" d="M431.722 401.351a7.188 7.188 0 1 1 7.371-7.185 7.052 7.052 0 0 1-7.371 7.185zm0-12.536a5.032 5.032 0 0 0-5.163 5.351 5.155 5.155 0 1 0 10.3 0 5.022 5.022 0 0 0-5.137-5.351z" class="cls-1" transform="translate(-125.705 -16.456)"/>
        <path id="Path_263" d="M453.073 401.211v-11.784h-4.819v-1.834h11.8v1.834h-4.819v11.784z" class="cls-1" transform="translate(-134.926 -16.692)"/>
        <path id="Path_264" d="M470.155 401.211v-13.619h8.566v1.834h-6.4v3.693h5.271v1.834h-5.271v4.423h6.4v1.834z" class="cls-1" transform="translate(-143.366 -16.692)"/>
        <path id="Path_265" d="M496.355 401.366a4.351 4.351 0 0 1-3.931-2.566l-1.738-3.072H489v5.484h-2.164v-13.62h4.658c2.887 0 4.61 1.521 4.61 4.068a3.751 3.751 0 0 1-3.171 3.913l1.495 2.473c.835 1.384 1.54 1.662 2.4 1.662a3.389 3.389 0 0 0 .946-.136v1.6a4.915 4.915 0 0 1-1.419.194zm-4.863-7.472c2.042 0 2.47-1.214 2.47-2.234s-.428-2.234-2.47-2.234H489v4.467z" class="cls-1" transform="translate(-149.794 -16.692)"/>
        <path id="Path_266" d="M510.815 401.319a6.474 6.474 0 0 1-4.65-1.667l-.07-.071.51-2.044a5.64 5.64 0 0 0 4.211 1.991c1.6 0 2.675-.862 2.675-2.145 0-1.159-.491-1.916-3.081-2.593-2.558-.664-3.911-2.06-3.911-4.04 0-2.134 1.869-3.625 4.544-3.625a6.111 6.111 0 0 1 3.889 1.283l-.507 1.79a6.3 6.3 0 0 0-3.382-1.284c-1.562 0-2.493.687-2.493 1.836 0 .675.3 1.528 2.606 2.129 3.032.781 4.385 2.123 4.385 4.349-.002 2.812-2.45 4.091-4.726 4.091z" class="cls-1" transform="translate(-157.217 -16.512)"/>
        <path id="Path_267" d="M98.146 384.934V382.8c.994-.178 1.949-.6 2.114-1.752v-32.884c-.165-1.155-1.12-1.573-2.114-1.752v-2.13h14.412v2.132c-1.025.178-2.181.381-2.181 1.84V381.6s6.8.558 9.275-7.642l2.5.934-2.728 10.04z" class="cls-1" transform="translate(0 -0.001)"/>
        <path id="Path_268" d="M193.945 344.281h-8.2v2.132c1.036.1 2.235-.028 2.04 1.784l-3.64 19.9-3.224-19.9c-.184-1.727.789-1.685 1.825-1.784v-2.133h-21.187v2.13c.994.178 1.983.462 1.869 1.745l-3.6 19.805-4.592-23.681h-5.91l-4.226 23.994-3.5-19.825c-.057-1.69 1.45-1.935 2.486-2.034v-2.132h-14.71v2.13c.993.178 1.948.6 2.114 1.752l7.709 36.769h6.765l4.364-18.971 3.066 18.969h7.782l6.969-37a1.614 1.614 0 0 1 3.157-.022l6.829 37.016h7.3l6.734-36.652c.228-1.854 2.406-1.867 2.406-1.867v-2.132h-4.023" class="cls-1" transform="translate(-12.034 0)"/>
        <path id="Path_269" fill="#be0f34" d="M206.894 398.692a2.2 2.2 0 0 0 1.092-.933c.227-.311.455.178.773.089.818-.489 1.864-.311 2.592-.977a3.191 3.191 0 0 0 2.182-1.155l-1.182-.089c-.274-.178-.728-.444-.545-.889.727-.178.818-.933 1.5-1.155-5.774.577-11.23 2.221-16.777 3.109l-11.139 2.533-2.273.666c-.682.534-1.728.09-2.318.845-1.183-.4-1.682.711-2.728.621-.228-.092-.409.08-.568.255l-.75-.121v.31c-4.046 1.333-8.138 2.533-12.093 4.133a45.923 45.923 0 0 1-5.911 2.487c-2.092.445-3.774 2.044-6 2.311-2.864 1.154-5.41 2.887-8.366 3.732-1.183 1.243-3 1.021-4.183 2.266-1.773-.133-2.636 1.865-4.364 1.91a83.947 83.947 0 0 0-7.638 4.8c-.364.312-1 .621-1.273 1.155.682.356.727.932 1.091 1.422-.273 1.2 1.682 1.334.954 2.533 2.092-.045-.363 2.355 1.955 1.91.455.757 1.773.49 2.409.222 2.183-1.067 4-2.932 6.321-3.733a12.63 12.63 0 0 1 3.955-2.131 42.012 42.012 0 0 1 7.5-4.133c.773-1.022 2.046-.755 2.864-1.6 2.046-1.2 4.5-1.51 6.547-2.8.682.311.865-.489 1.409-.533 3.774-1.333 7.275-3.243 11.23-4.132 3.228-1.556 6.82-2.133 10.048-3.644 1.546-.444 3.047-.843 4.592-1.287 1.364-.133 2.91-.933 4.365-.933.636-.533 1.545-.312 2.273-.533l2.092-.533.091-.222c2.637-.666 5.729-.8 8.32-1.911h-1.546a2.327 2.327 0 0 1 1.546-.755c2.227-.045 4.137-1.065 6.183-1.6l-5.637.4-.364-.31c.954-.71 2.319-.355 3.411-.755.773-.844 1.773-.266 2.5-1.066-1.409.711-3.182.444-4.819.666l-.183-.222c.136-.4.545-.134.862-.223zm5.825-.071c-.508.042-.6.026-.91.237a.812.812 0 0 0-.361.468 8.872 8.872 0 0 0 2.4-.636 5.079 5.079 0 0 0-1.129-.07z" transform="translate(-11.09 -19.001)"/>
        <g id="Group_47" transform="translate(359.2 370.614)">
            <path id="Path_270" d="M524.288 389.86a1.367 1.367 0 1 1 1.4-1.367 1.384 1.384 0 0 1-1.4 1.367zm0-2.556a1.19 1.19 0 1 0 1.223 1.189 1.2 1.2 0 0 0-1.223-1.193zm.344 1.988l-.387-.627h-.157v.627h-.43v-1.622h.739c.406 0 .575.237.575.5a.456.456 0 0 1-.309.45l.472.675zm-.545-1.349v.449h.206c.17 0 .248-.076.248-.218s-.079-.231-.248-.231z" class="cls-1" transform="translate(-522.889 -387.126)"/>
        </g>
    </g>
</svg>
